<svg width="205" height="151" viewBox="0 0 205 151" fill="none" xmlns="http://www.w3.org/2000/svg">
<rect width="204.5" height="151" rx="32" fill="white"/>
<rect x="0.5" y="0.5" width="203.5" height="150" rx="31.5" stroke="#191825" stroke-opacity="0.1"/>
<path d="M61.265 59.63C61.545 63.2 64.975 66.56 69.91 66.56C75.37 66.56 78.625 62.885 78.625 58.65C78.625 53.785 75.405 51.055 70.855 51.055C69.35 51.055 67.74 51.545 66.76 52.455L67.88 47.45H77.4V43.285H64.59L61.895 54.94C62.385 55.08 65.85 56.27 66.305 56.445C67.04 55.605 68.265 54.905 69.805 54.905C71.905 54.905 73.83 56.13 73.83 58.72C73.83 60.995 72.08 62.43 69.91 62.43C67.495 62.43 65.885 60.715 65.78 58.615L61.265 59.63ZM85.7923 54.66C85.7923 52.28 86.1423 50.25 87.0173 48.885C87.7173 47.765 88.8023 47.03 90.4473 47.03C92.1273 47.03 93.1423 47.765 93.8423 48.885C94.7523 50.25 95.1023 52.28 95.1023 54.66C95.1023 57.04 94.7523 59.07 93.8423 60.435C93.1423 61.555 92.1273 62.29 90.4473 62.29C88.8023 62.29 87.7173 61.555 87.0173 60.435C86.1423 59.07 85.7923 57.04 85.7923 54.66ZM80.9623 54.66C80.9623 57.565 81.4173 60.4 82.9573 62.745C84.4623 64.985 86.9123 66.56 90.4473 66.56C93.9823 66.56 96.4323 64.985 97.9023 62.745C99.4423 60.4 99.9323 57.565 99.9323 54.66C99.9323 51.755 99.4423 48.92 97.9023 46.575C96.4323 44.335 93.9823 42.76 90.4473 42.76C86.9123 42.76 84.4623 44.335 82.9573 46.575C81.4173 48.92 80.9623 51.755 80.9623 54.66ZM107.565 54.66C107.565 52.28 107.915 50.25 108.79 48.885C109.49 47.765 110.575 47.03 112.22 47.03C113.9 47.03 114.915 47.765 115.615 48.885C116.525 50.25 116.875 52.28 116.875 54.66C116.875 57.04 116.525 59.07 115.615 60.435C114.915 61.555 113.9 62.29 112.22 62.29C110.575 62.29 109.49 61.555 108.79 60.435C107.915 59.07 107.565 57.04 107.565 54.66ZM102.735 54.66C102.735 57.565 103.19 60.4 104.73 62.745C106.235 64.985 108.685 66.56 112.22 66.56C115.755 66.56 118.205 64.985 119.675 62.745C121.215 60.4 121.705 57.565 121.705 54.66C121.705 51.755 121.215 48.92 119.675 46.575C118.205 44.335 115.755 42.76 112.22 42.76C108.685 42.76 106.235 44.335 104.73 46.575C103.19 48.92 102.735 51.755 102.735 54.66ZM125.061 53.785V57.6H131.676V64.46H135.596V57.6H142.246V53.785H135.596V46.96H131.676V53.785H125.061Z" fill="#FF5722"/>
<path d="M32.8352 111V97.9091H34.4205V103.739H41.4006V97.9091H42.9858V111H41.4006V105.145H34.4205V111H32.8352ZM49.9435 111.205C49.0572 111.205 48.2795 110.994 47.6104 110.572C46.9457 110.15 46.4258 109.56 46.0508 108.801C45.68 108.043 45.4947 107.156 45.4947 106.142C45.4947 105.119 45.68 104.227 46.0508 103.464C46.4258 102.701 46.9457 102.109 47.6104 101.687C48.2795 101.265 49.0572 101.054 49.9435 101.054C50.8299 101.054 51.6055 101.265 52.2702 101.687C52.9393 102.109 53.4592 102.701 53.8299 103.464C54.2049 104.227 54.3924 105.119 54.3924 106.142C54.3924 107.156 54.2049 108.043 53.8299 108.801C53.4592 109.56 52.9393 110.15 52.2702 110.572C51.6055 110.994 50.8299 111.205 49.9435 111.205ZM49.9435 109.849C50.6168 109.849 51.1708 109.677 51.6055 109.332C52.0401 108.987 52.3619 108.533 52.5707 107.97C52.7795 107.408 52.8839 106.798 52.8839 106.142C52.8839 105.486 52.7795 104.874 52.5707 104.308C52.3619 103.741 52.0401 103.283 51.6055 102.933C51.1708 102.584 50.6168 102.409 49.9435 102.409C49.2702 102.409 48.7163 102.584 48.2816 102.933C47.8469 103.283 47.5252 103.741 47.3164 104.308C47.1076 104.874 47.0032 105.486 47.0032 106.142C47.0032 106.798 47.1076 107.408 47.3164 107.97C47.5252 108.533 47.8469 108.987 48.2816 109.332C48.7163 109.677 49.2702 109.849 49.9435 109.849ZM58.2037 97.9091V111H56.6951V97.9091H58.2037ZM60.9666 111V101.182H62.4751V111H60.9666ZM61.7337 99.5455C61.4396 99.5455 61.1861 99.4453 60.973 99.245C60.7642 99.0447 60.6598 98.804 60.6598 98.5227C60.6598 98.2415 60.7642 98.0007 60.973 97.8004C61.1861 97.6001 61.4396 97.5 61.7337 97.5C62.0277 97.5 62.2791 97.6001 62.4879 97.8004C62.701 98.0007 62.8075 98.2415 62.8075 98.5227C62.8075 98.804 62.701 99.0447 62.4879 99.245C62.2791 99.4453 62.0277 99.5455 61.7337 99.5455ZM68.9455 111.205C68.1273 111.205 67.405 110.998 66.7786 110.585C66.1522 110.167 65.6621 109.579 65.3084 108.82C64.9547 108.058 64.7779 107.156 64.7779 106.116C64.7779 105.085 64.9547 104.19 65.3084 103.432C65.6621 102.673 66.1543 102.087 66.785 101.674C67.4157 101.261 68.1444 101.054 68.9711 101.054C69.6103 101.054 70.1152 101.161 70.486 101.374C70.861 101.582 71.1465 101.821 71.3425 102.089C71.5428 102.354 71.6983 102.571 71.8091 102.741H71.937V97.9091H73.4455V111H71.9881V109.491H71.8091C71.6983 109.67 71.5407 109.896 71.3361 110.169C71.1316 110.437 70.8397 110.678 70.4604 110.891C70.0811 111.1 69.5762 111.205 68.9455 111.205ZM69.15 109.849C69.7551 109.849 70.2665 109.692 70.6841 109.376C71.1017 109.057 71.4192 108.616 71.6365 108.053C71.8539 107.487 71.9625 106.832 71.9625 106.091C71.9625 105.358 71.856 104.717 71.6429 104.167C71.4299 103.613 71.1145 103.183 70.6969 102.876C70.2793 102.565 69.7637 102.409 69.15 102.409C68.5108 102.409 67.9782 102.573 67.552 102.901C67.1301 103.225 66.8127 103.666 66.5996 104.224C66.3908 104.778 66.2864 105.401 66.2864 106.091C66.2864 106.79 66.3929 107.425 66.606 107.996C66.8233 108.562 67.1429 109.014 67.5648 109.351C67.9909 109.683 68.5194 109.849 69.15 109.849ZM79.307 111.23C78.6848 111.23 78.1202 111.113 77.6131 110.879C77.106 110.64 76.7033 110.297 76.405 109.849C76.1067 109.398 75.9576 108.852 75.9576 108.213C75.9576 107.651 76.0684 107.195 76.29 106.845C76.5115 106.491 76.8077 106.214 77.1784 106.014C77.5492 105.814 77.9583 105.665 78.4057 105.567C78.8574 105.464 79.3113 105.384 79.7672 105.324C80.3638 105.247 80.8475 105.19 81.2182 105.151C81.5932 105.109 81.8659 105.038 82.0364 104.94C82.2111 104.842 82.2985 104.672 82.2985 104.429V104.378C82.2985 103.747 82.1259 103.257 81.7807 102.908C81.4398 102.558 80.9221 102.384 80.2275 102.384C79.5073 102.384 78.9426 102.541 78.5336 102.857C78.1245 103.172 77.8368 103.509 77.6706 103.866L76.2388 103.355C76.4945 102.759 76.8354 102.294 77.2615 101.962C77.6919 101.625 78.1607 101.391 78.6678 101.259C79.1792 101.122 79.682 101.054 80.1763 101.054C80.4917 101.054 80.8539 101.092 81.263 101.169C81.6763 101.241 82.0748 101.393 82.4583 101.623C82.8461 101.853 83.1678 102.2 83.4235 102.665C83.6792 103.129 83.807 103.751 83.807 104.531V111H82.2985V109.67H82.2218C82.1195 109.884 81.949 110.112 81.7104 110.354C81.4718 110.597 81.1543 110.804 80.758 110.974C80.3617 111.145 79.878 111.23 79.307 111.23ZM79.5371 109.875C80.1337 109.875 80.6365 109.758 81.0456 109.523C81.459 109.289 81.7701 108.987 81.9789 108.616C82.1919 108.245 82.2985 107.855 82.2985 107.446V106.065C82.2346 106.142 82.0939 106.212 81.8766 106.276C81.6635 106.336 81.4164 106.389 81.1351 106.436C80.8581 106.479 80.5875 106.517 80.3233 106.551C80.0634 106.581 79.8525 106.607 79.6905 106.628C79.2985 106.679 78.932 106.762 78.5911 106.877C78.2544 106.988 77.9817 107.156 77.7729 107.382C77.5684 107.604 77.4661 107.906 77.4661 108.29C77.4661 108.814 77.66 109.21 78.0478 109.479C78.4398 109.743 78.9363 109.875 79.5371 109.875ZM87.1804 114.682C86.9247 114.682 86.6967 114.661 86.4964 114.618C86.2962 114.58 86.1577 114.541 86.081 114.503L86.4645 113.173C86.831 113.267 87.1548 113.301 87.4361 113.276C87.7173 113.25 87.9666 113.124 88.1839 112.898C88.4055 112.677 88.608 112.317 88.7912 111.818L89.0724 111.051L85.4418 101.182H87.0781L89.7884 109.006H89.8906L92.6009 101.182H94.2372L90.0696 112.432C89.8821 112.939 89.6499 113.359 89.3729 113.691C89.0959 114.028 88.7741 114.277 88.4077 114.439C88.0455 114.601 87.6364 114.682 87.1804 114.682ZM101.495 111V97.9091H105.919C106.946 97.9091 107.785 98.0945 108.437 98.4652C109.093 98.8317 109.579 99.3281 109.895 99.9545C110.21 100.581 110.368 101.28 110.368 102.051C110.368 102.822 110.21 103.523 109.895 104.154C109.583 104.785 109.102 105.288 108.45 105.663C107.798 106.033 106.963 106.219 105.944 106.219H102.774V104.812H105.893C106.596 104.812 107.161 104.691 107.587 104.448C108.013 104.205 108.322 103.877 108.514 103.464C108.71 103.046 108.808 102.575 108.808 102.051C108.808 101.527 108.71 101.058 108.514 100.645C108.322 100.232 108.011 99.9077 107.581 99.6733C107.15 99.4347 106.579 99.3153 105.868 99.3153H103.081V111H101.495ZM115.606 111.23C114.984 111.23 114.419 111.113 113.912 110.879C113.405 110.64 113.002 110.297 112.704 109.849C112.406 109.398 112.256 108.852 112.256 108.213C112.256 107.651 112.367 107.195 112.589 106.845C112.81 106.491 113.107 106.214 113.477 106.014C113.848 105.814 114.257 105.665 114.705 105.567C115.156 105.464 115.61 105.384 116.066 105.324C116.663 105.247 117.146 105.19 117.517 105.151C117.892 105.109 118.165 105.038 118.335 104.94C118.51 104.842 118.597 104.672 118.597 104.429V104.378C118.597 103.747 118.425 103.257 118.08 102.908C117.739 102.558 117.221 102.384 116.526 102.384C115.806 102.384 115.241 102.541 114.832 102.857C114.423 103.172 114.136 103.509 113.969 103.866L112.538 103.355C112.793 102.759 113.134 102.294 113.56 101.962C113.991 101.625 114.46 101.391 114.967 101.259C115.478 101.122 115.981 101.054 116.475 101.054C116.79 101.054 117.153 101.092 117.562 101.169C117.975 101.241 118.374 101.393 118.757 101.623C119.145 101.853 119.467 102.2 119.722 102.665C119.978 103.129 120.106 103.751 120.106 104.531V111H118.597V109.67H118.521C118.418 109.884 118.248 110.112 118.009 110.354C117.771 110.597 117.453 110.804 117.057 110.974C116.661 111.145 116.177 111.23 115.606 111.23ZM115.836 109.875C116.433 109.875 116.935 109.758 117.344 109.523C117.758 109.289 118.069 108.987 118.278 108.616C118.491 108.245 118.597 107.855 118.597 107.446V106.065C118.533 106.142 118.393 106.212 118.175 106.276C117.962 106.336 117.715 106.389 117.434 106.436C117.157 106.479 116.886 106.517 116.622 106.551C116.362 106.581 116.151 106.607 115.989 106.628C115.597 106.679 115.231 106.762 114.89 106.877C114.553 106.988 114.281 107.156 114.072 107.382C113.867 107.604 113.765 107.906 113.765 108.29C113.765 108.814 113.959 109.21 114.347 109.479C114.739 109.743 115.235 109.875 115.836 109.875ZM126.848 111.205C125.927 111.205 125.135 110.987 124.47 110.553C123.805 110.118 123.294 109.519 122.936 108.756C122.578 107.994 122.399 107.122 122.399 106.142C122.399 105.145 122.582 104.265 122.949 103.502C123.319 102.735 123.835 102.136 124.496 101.706C125.16 101.271 125.936 101.054 126.822 101.054C127.513 101.054 128.135 101.182 128.689 101.438C129.243 101.693 129.697 102.051 130.05 102.511C130.404 102.972 130.623 103.509 130.709 104.122H129.2C129.085 103.675 128.829 103.278 128.433 102.933C128.041 102.584 127.513 102.409 126.848 102.409C126.26 102.409 125.744 102.562 125.301 102.869C124.862 103.172 124.519 103.6 124.272 104.154C124.029 104.704 123.907 105.349 123.907 106.091C123.907 106.849 124.027 107.51 124.265 108.072C124.508 108.635 124.849 109.072 125.288 109.383C125.731 109.694 126.251 109.849 126.848 109.849C127.24 109.849 127.596 109.781 127.915 109.645C128.235 109.509 128.506 109.312 128.727 109.057C128.949 108.801 129.106 108.494 129.2 108.136H130.709C130.623 108.716 130.412 109.238 130.076 109.702C129.743 110.163 129.302 110.529 128.753 110.802C128.207 111.07 127.572 111.205 126.848 111.205ZM134.32 107.42L134.295 105.554H134.601L138.897 101.182H140.763L136.187 105.81H136.059L134.32 107.42ZM132.914 111V97.9091H134.422V111H132.914ZM139.153 111L135.317 106.142L136.391 105.094L141.07 111H139.153ZM145.594 111.23C144.972 111.23 144.407 111.113 143.9 110.879C143.393 110.64 142.99 110.297 142.692 109.849C142.394 109.398 142.245 108.852 142.245 108.213C142.245 107.651 142.355 107.195 142.577 106.845C142.799 106.491 143.095 106.214 143.466 106.014C143.836 105.814 144.245 105.665 144.693 105.567C145.145 105.464 145.598 105.384 146.054 105.324C146.651 105.247 147.135 105.19 147.505 105.151C147.88 105.109 148.153 105.038 148.324 104.94C148.498 104.842 148.586 104.672 148.586 104.429V104.378C148.586 103.747 148.413 103.257 148.068 102.908C147.727 102.558 147.209 102.384 146.515 102.384C145.794 102.384 145.23 102.541 144.821 102.857C144.412 103.172 144.124 103.509 143.958 103.866L142.526 103.355C142.782 102.759 143.123 102.294 143.549 101.962C143.979 101.625 144.448 101.391 144.955 101.259C145.466 101.122 145.969 101.054 146.463 101.054C146.779 101.054 147.141 101.092 147.55 101.169C147.963 101.241 148.362 101.393 148.745 101.623C149.133 101.853 149.455 102.2 149.711 102.665C149.966 103.129 150.094 103.751 150.094 104.531V111H148.586V109.67H148.509C148.407 109.884 148.236 110.112 147.998 110.354C147.759 110.597 147.441 110.804 147.045 110.974C146.649 111.145 146.165 111.23 145.594 111.23ZM145.824 109.875C146.421 109.875 146.924 109.758 147.333 109.523C147.746 109.289 148.057 108.987 148.266 108.616C148.479 108.245 148.586 107.855 148.586 107.446V106.065C148.522 106.142 148.381 106.212 148.164 106.276C147.951 106.336 147.703 106.389 147.422 106.436C147.145 106.479 146.875 106.517 146.61 106.551C146.35 106.581 146.14 106.607 145.978 106.628C145.586 106.679 145.219 106.762 144.878 106.877C144.542 106.988 144.269 107.156 144.06 107.382C143.855 107.604 143.753 107.906 143.753 108.29C143.753 108.814 143.947 109.21 144.335 109.479C144.727 109.743 145.223 109.875 145.824 109.875ZM156.811 114.886C156.082 114.886 155.455 114.793 154.931 114.605C154.407 114.422 153.97 114.179 153.621 113.876C153.276 113.578 153.001 113.259 152.796 112.918L153.998 112.074C154.134 112.253 154.307 112.457 154.516 112.688C154.725 112.922 155.01 113.124 155.372 113.295C155.739 113.469 156.218 113.557 156.811 113.557C157.603 113.557 158.257 113.365 158.773 112.982C159.289 112.598 159.546 111.997 159.546 111.179V109.185H159.419C159.308 109.364 159.15 109.585 158.945 109.849C158.745 110.109 158.455 110.342 158.076 110.546C157.701 110.746 157.194 110.847 156.555 110.847C155.762 110.847 155.051 110.659 154.42 110.284C153.794 109.909 153.297 109.364 152.931 108.648C152.568 107.932 152.387 107.062 152.387 106.04C152.387 105.034 152.564 104.158 152.918 103.413C153.271 102.663 153.764 102.083 154.394 101.674C155.025 101.261 155.754 101.054 156.58 101.054C157.22 101.054 157.727 101.161 158.102 101.374C158.481 101.582 158.771 101.821 158.971 102.089C159.176 102.354 159.333 102.571 159.444 102.741H159.597V101.182H161.055V111.281C161.055 112.125 160.863 112.811 160.48 113.339C160.1 113.872 159.589 114.262 158.945 114.509C158.306 114.761 157.595 114.886 156.811 114.886ZM156.759 109.491C157.365 109.491 157.876 109.353 158.294 109.076C158.711 108.799 159.029 108.401 159.246 107.881C159.463 107.361 159.572 106.739 159.572 106.014C159.572 105.307 159.465 104.683 159.252 104.141C159.039 103.6 158.724 103.176 158.306 102.869C157.889 102.562 157.373 102.409 156.759 102.409C156.12 102.409 155.588 102.571 155.161 102.895C154.74 103.219 154.422 103.653 154.209 104.199C154 104.744 153.896 105.349 153.896 106.014C153.896 106.696 154.002 107.299 154.215 107.823C154.433 108.343 154.752 108.752 155.174 109.05C155.6 109.344 156.129 109.491 156.759 109.491ZM167.933 111.205C166.987 111.205 166.171 110.996 165.485 110.578C164.803 110.156 164.276 109.568 163.906 108.814C163.539 108.055 163.356 107.173 163.356 106.168C163.356 105.162 163.539 104.276 163.906 103.509C164.276 102.737 164.792 102.136 165.453 101.706C166.117 101.271 166.893 101.054 167.779 101.054C168.291 101.054 168.796 101.139 169.294 101.31C169.793 101.48 170.247 101.757 170.656 102.141C171.065 102.52 171.391 103.023 171.634 103.649C171.877 104.276 171.998 105.047 171.998 105.963V106.602H164.43V105.298H170.464C170.464 104.744 170.353 104.25 170.132 103.815C169.914 103.381 169.603 103.038 169.198 102.786C168.798 102.535 168.325 102.409 167.779 102.409C167.178 102.409 166.659 102.558 166.22 102.857C165.785 103.151 165.45 103.534 165.216 104.007C164.982 104.48 164.865 104.987 164.865 105.528V106.398C164.865 107.139 164.992 107.768 165.248 108.283C165.508 108.795 165.868 109.185 166.328 109.453C166.789 109.717 167.323 109.849 167.933 109.849C168.329 109.849 168.687 109.794 169.007 109.683C169.33 109.568 169.61 109.398 169.844 109.172C170.078 108.942 170.259 108.656 170.387 108.315L171.845 108.724C171.691 109.219 171.433 109.653 171.071 110.028C170.709 110.399 170.262 110.689 169.729 110.898C169.196 111.102 168.597 111.205 167.933 111.205Z" fill="#191825"/>
</svg>
