<svg width="205" height="151" viewBox="0 0 205 151" fill="none" xmlns="http://www.w3.org/2000/svg">
<rect width="204.5" height="151" rx="32" fill="white"/>
<rect x="0.5" y="0.5" width="203.5" height="150" rx="31.5" stroke="#191825" stroke-opacity="0.1"/>
<path d="M84.59 66V43.285H80.425C79.97 45.665 77.66 47.52 74.335 47.555V50.81H79.795V66H84.59ZM93.7679 54.66C93.7679 52.28 94.1179 50.25 94.9929 48.885C95.6929 47.765 96.7779 47.03 98.4229 47.03C100.103 47.03 101.118 47.765 101.818 48.885C102.728 50.25 103.078 52.28 103.078 54.66C103.078 57.04 102.728 59.07 101.818 60.435C101.118 61.555 100.103 62.29 98.4229 62.29C96.7779 62.29 95.6929 61.555 94.9929 60.435C94.1179 59.07 93.7679 57.04 93.7679 54.66ZM88.9379 54.66C88.9379 57.565 89.3929 60.4 90.9329 62.745C92.4379 64.985 94.8879 66.56 98.4229 66.56C101.958 66.56 104.408 64.985 105.878 62.745C107.418 60.4 107.908 57.565 107.908 54.66C107.908 51.755 107.418 48.92 105.878 46.575C104.408 44.335 101.958 42.76 98.4229 42.76C94.8879 42.76 92.4379 44.335 90.9329 46.575C89.3929 48.92 88.9379 51.755 88.9379 54.66ZM115.54 54.66C115.54 52.28 115.89 50.25 116.765 48.885C117.465 47.765 118.55 47.03 120.195 47.03C121.875 47.03 122.89 47.765 123.59 48.885C124.5 50.25 124.85 52.28 124.85 54.66C124.85 57.04 124.5 59.07 123.59 60.435C122.89 61.555 121.875 62.29 120.195 62.29C118.55 62.29 117.465 61.555 116.765 60.435C115.89 59.07 115.54 57.04 115.54 54.66ZM110.71 54.66C110.71 57.565 111.165 60.4 112.705 62.745C114.21 64.985 116.66 66.56 120.195 66.56C123.73 66.56 126.18 64.985 127.65 62.745C129.19 60.4 129.68 57.565 129.68 54.66C129.68 51.755 129.19 48.92 127.65 46.575C126.18 44.335 123.73 42.76 120.195 42.76C116.66 42.76 114.21 44.335 112.705 46.575C111.165 48.92 110.71 51.755 110.71 54.66Z" fill="#FF5722"/>
<path d="M49.3352 111V97.9091H50.9205V109.594H57.0057V111H49.3352ZM65.4432 106.986V101.182H66.9517V111H65.4432V109.338H65.3409C65.1108 109.837 64.7528 110.261 64.267 110.61C63.7813 110.955 63.1676 111.128 62.4261 111.128C61.8125 111.128 61.267 110.994 60.7898 110.725C60.3125 110.452 59.9375 110.043 59.6648 109.498C59.392 108.948 59.2557 108.256 59.2557 107.42V101.182H60.7642V107.318C60.7642 108.034 60.9645 108.605 61.3651 109.031C61.7699 109.457 62.2855 109.67 62.9119 109.67C63.2869 109.67 63.6683 109.575 64.0561 109.383C64.4482 109.191 64.7763 108.897 65.0405 108.501C65.3089 108.104 65.4432 107.599 65.4432 106.986ZM70.8397 101.182L73.1919 105.196L75.5442 101.182H77.2828L74.1124 106.091L77.2828 111H75.5442L73.1919 107.19L70.8397 111H69.101L72.2203 106.091L69.101 101.182H70.8397ZM85.6229 106.986V101.182H87.1314V111H85.6229V109.338H85.5206C85.2905 109.837 84.9325 110.261 84.4467 110.61C83.9609 110.955 83.3473 111.128 82.6058 111.128C81.9922 111.128 81.4467 110.994 80.9695 110.725C80.4922 110.452 80.1172 110.043 79.8445 109.498C79.5717 108.948 79.4354 108.256 79.4354 107.42V101.182H80.9439V107.318C80.9439 108.034 81.1442 108.605 81.5447 109.031C81.9496 109.457 82.4652 109.67 83.0916 109.67C83.4666 109.67 83.848 109.575 84.2358 109.383C84.6278 109.191 84.956 108.897 85.2202 108.501C85.4886 108.104 85.6229 107.599 85.6229 106.986ZM89.8944 111V101.182H91.3517V102.665H91.454C91.633 102.179 91.9569 101.785 92.4256 101.482C92.8944 101.18 93.4228 101.028 94.0108 101.028C94.1216 101.028 94.2601 101.031 94.4263 101.035C94.5925 101.039 94.7182 101.045 94.8034 101.054V102.588C94.7523 102.575 94.6351 102.556 94.4519 102.531C94.2729 102.501 94.0833 102.486 93.883 102.486C93.4057 102.486 92.9796 102.586 92.6046 102.786C92.2338 102.982 91.9398 103.255 91.7225 103.604C91.5094 103.95 91.4029 104.344 91.4029 104.787V111H89.8944ZM97.862 114.682C97.6064 114.682 97.3784 114.661 97.1781 114.618C96.9778 114.58 96.8393 114.541 96.7626 114.503L97.1461 113.173C97.5126 113.267 97.8365 113.301 98.1177 113.276C98.399 113.25 98.6483 113.124 98.8656 112.898C99.0872 112.677 99.2896 112.317 99.4728 111.818L99.7541 111.051L96.1234 101.182H97.7598L100.47 109.006H100.572L103.282 101.182H104.919L100.751 112.432C100.564 112.939 100.331 113.359 100.055 113.691C99.7775 114.028 99.4558 114.277 99.0893 114.439C98.7271 114.601 98.318 114.682 97.862 114.682ZM112.177 111V97.9091H113.762V103.739H120.742V97.9091H122.328V111H120.742V105.145H113.762V111H112.177ZM129.285 111.205C128.399 111.205 127.621 110.994 126.952 110.572C126.287 110.15 125.768 109.56 125.393 108.801C125.022 108.043 124.836 107.156 124.836 106.142C124.836 105.119 125.022 104.227 125.393 103.464C125.768 102.701 126.287 102.109 126.952 101.687C127.621 101.265 128.399 101.054 129.285 101.054C130.172 101.054 130.947 101.265 131.612 101.687C132.281 102.109 132.801 102.701 133.172 103.464C133.547 104.227 133.734 105.119 133.734 106.142C133.734 107.156 133.547 108.043 133.172 108.801C132.801 109.56 132.281 110.15 131.612 110.572C130.947 110.994 130.172 111.205 129.285 111.205ZM129.285 109.849C129.959 109.849 130.513 109.677 130.947 109.332C131.382 108.987 131.704 108.533 131.912 107.97C132.121 107.408 132.226 106.798 132.226 106.142C132.226 105.486 132.121 104.874 131.912 104.308C131.704 103.741 131.382 103.283 130.947 102.933C130.513 102.584 129.959 102.409 129.285 102.409C128.612 102.409 128.058 102.584 127.623 102.933C127.189 103.283 126.867 103.741 126.658 104.308C126.449 104.874 126.345 105.486 126.345 106.142C126.345 106.798 126.449 107.408 126.658 107.97C126.867 108.533 127.189 108.987 127.623 109.332C128.058 109.677 128.612 109.849 129.285 109.849ZM140.307 101.182V102.46H135.219V101.182H140.307ZM136.702 98.8295H138.21V108.188C138.21 108.614 138.272 108.933 138.396 109.146C138.523 109.355 138.685 109.496 138.881 109.568C139.082 109.636 139.293 109.67 139.514 109.67C139.68 109.67 139.817 109.662 139.923 109.645C140.03 109.624 140.115 109.607 140.179 109.594L140.486 110.949C140.384 110.987 140.241 111.026 140.058 111.064C139.874 111.107 139.642 111.128 139.361 111.128C138.935 111.128 138.517 111.036 138.108 110.853C137.703 110.67 137.366 110.391 137.098 110.016C136.834 109.641 136.702 109.168 136.702 108.597V98.8295ZM146.587 111.205C145.641 111.205 144.825 110.996 144.139 110.578C143.457 110.156 142.931 109.568 142.56 108.814C142.194 108.055 142.01 107.173 142.01 106.168C142.01 105.162 142.194 104.276 142.56 103.509C142.931 102.737 143.446 102.136 144.107 101.706C144.772 101.271 145.547 101.054 146.434 101.054C146.945 101.054 147.45 101.139 147.949 101.31C148.447 101.48 148.901 101.757 149.31 102.141C149.719 102.52 150.045 103.023 150.288 103.649C150.531 104.276 150.652 105.047 150.652 105.963V106.602H143.084V105.298H149.118C149.118 104.744 149.007 104.25 148.786 103.815C148.569 103.381 148.257 103.038 147.853 102.786C147.452 102.535 146.979 102.409 146.434 102.409C145.833 102.409 145.313 102.558 144.874 102.857C144.439 103.151 144.105 103.534 143.87 104.007C143.636 104.48 143.519 104.987 143.519 105.528V106.398C143.519 107.139 143.647 107.768 143.902 108.283C144.162 108.795 144.522 109.185 144.983 109.453C145.443 109.717 145.978 109.849 146.587 109.849C146.983 109.849 147.341 109.794 147.661 109.683C147.985 109.568 148.264 109.398 148.498 109.172C148.733 108.942 148.914 108.656 149.042 108.315L150.499 108.724C150.346 109.219 150.088 109.653 149.725 110.028C149.363 110.399 148.916 110.689 148.383 110.898C147.85 111.102 147.252 111.205 146.587 111.205ZM154.456 97.9091V111H152.947V97.9091H154.456Z" fill="#191825"/>
</svg>
