<svg width="32" height="32" viewBox="0 0 32 32" fill="none" xmlns="http://www.w3.org/2000/svg">
<path d="M16 32C24.8366 32 32 24.8366 32 16C32 7.16344 24.8366 0 16 0C7.16344 0 0 7.16344 0 16C0 24.8366 7.16344 32 16 32Z" fill="#5D50C6"/>
<path d="M25.8006 11.5005C25.115 11.8045 24.3774 12.0101 23.6039 12.102C24.3937 11.6288 24.9998 10.8801 25.2858 9.98654C24.5468 10.4249 23.728 10.7429 22.8572 10.9143C22.1596 10.1714 21.1656 9.70703 20.065 9.70703C17.9532 9.70703 16.2405 11.4197 16.2405 13.5315C16.2405 13.8312 16.2745 14.123 16.3401 14.4031C13.1616 14.2437 10.3434 12.7212 8.45699 10.4067C8.12785 10.9714 7.93904 11.6288 7.93904 12.3296C7.93904 13.6561 8.61471 14.8272 9.64035 15.5129C9.01373 15.4932 8.42362 15.3212 7.90824 15.034C7.90795 15.0503 7.90795 15.0665 7.90795 15.0825C7.90795 16.9355 9.22679 18.4811 10.976 18.8322C10.6554 18.9201 10.3169 18.9665 9.96863 18.9665C9.72163 18.9665 9.48234 18.9429 9.24903 18.8984C9.73561 20.4174 11.1477 21.5232 12.8216 21.5543C11.5125 22.5802 9.86367 23.1914 8.07138 23.1914C7.76335 23.1914 7.45817 23.1735 7.15955 23.1378C8.85116 24.2233 10.8619 24.8562 13.0216 24.8562C20.0561 24.8562 23.9031 19.0287 23.9031 13.9744C23.9031 13.8087 23.8994 13.6436 23.892 13.4799C24.6398 12.9408 25.2881 12.2674 25.8006 11.5005Z" fill="#F1F2F2"/>
</svg>
