<svg width="205" height="151" viewBox="0 0 205 151" fill="none" xmlns="http://www.w3.org/2000/svg">
<rect width="204.5" height="151" rx="32" fill="white"/>
<rect x="0.5" y="0.5" width="203.5" height="150" rx="31.5" stroke="#191825" stroke-opacity="0.1"/>
<path d="M110.68 43.285H93.425V47.45H105.115C105.115 47.45 97.52 53.785 96.575 66H101.58C102.595 54.555 108.965 48.78 110.68 47.31V43.285Z" fill="#FF5722"/>
<path d="M32.8352 111V97.9091H37.2585C38.2855 97.9091 39.125 98.0945 39.777 98.4652C40.4332 98.8317 40.919 99.3281 41.2344 99.9545C41.5497 100.581 41.7074 101.28 41.7074 102.051C41.7074 102.822 41.5497 103.523 41.2344 104.154C40.9233 104.785 40.4418 105.288 39.7898 105.663C39.1378 106.033 38.3026 106.219 37.2841 106.219H34.1136V104.812H37.233C37.9361 104.812 38.5007 104.691 38.9268 104.448C39.353 104.205 39.6619 103.877 39.8537 103.464C40.0497 103.046 40.1477 102.575 40.1477 102.051C40.1477 101.527 40.0497 101.058 39.8537 100.645C39.6619 100.232 39.3509 99.9077 38.9205 99.6733C38.4901 99.4347 37.919 99.3153 37.2074 99.3153H34.4205V111H32.8352ZM44.0565 111V101.182H45.5138V102.665H45.6161C45.7951 102.179 46.119 101.785 46.5877 101.482C47.0565 101.18 47.5849 101.028 48.1729 101.028C48.2837 101.028 48.4222 101.031 48.5884 101.035C48.7546 101.039 48.8803 101.045 48.9656 101.054V102.588C48.9144 102.575 48.7972 102.556 48.614 102.531C48.435 102.501 48.2454 102.486 48.0451 102.486C47.5678 102.486 47.1417 102.586 46.7667 102.786C46.396 102.982 46.1019 103.255 45.8846 103.604C45.6715 103.95 45.565 104.344 45.565 104.787V111H44.0565ZM54.5714 111.205C53.6254 111.205 52.8093 110.996 52.1232 110.578C51.4414 110.156 50.9151 109.568 50.5444 108.814C50.1779 108.055 49.9947 107.173 49.9947 106.168C49.9947 105.162 50.1779 104.276 50.5444 103.509C50.9151 102.737 51.4308 102.136 52.0913 101.706C52.756 101.271 53.5316 101.054 54.418 101.054C54.9293 101.054 55.4343 101.139 55.9329 101.31C56.4315 101.48 56.8853 101.757 57.2944 102.141C57.7035 102.52 58.0295 103.023 58.2724 103.649C58.5153 104.276 58.6367 105.047 58.6367 105.963V106.602H51.0685V105.298H57.1026C57.1026 104.744 56.9918 104.25 56.7702 103.815C56.5529 103.381 56.2418 103.038 55.837 102.786C55.4364 102.535 54.9634 102.409 54.418 102.409C53.8171 102.409 53.2972 102.558 52.8583 102.857C52.4237 103.151 52.0891 103.534 51.8548 104.007C51.6204 104.48 51.5032 104.987 51.5032 105.528V106.398C51.5032 107.139 51.631 107.768 51.8867 108.283C52.1467 108.795 52.5067 109.185 52.967 109.453C53.4272 109.717 53.962 109.849 54.5714 109.849C54.9677 109.849 55.3256 109.794 55.6452 109.683C55.9691 109.568 56.2482 109.398 56.4826 109.172C56.717 108.942 56.8981 108.656 57.0259 108.315L58.4833 108.724C58.3299 109.219 58.0721 109.653 57.7099 110.028C57.3477 110.399 56.9002 110.689 56.3675 110.898C55.8349 111.102 55.2362 111.205 54.5714 111.205ZM60.9315 111V101.182H62.3888V102.716H62.5167C62.7212 102.192 63.0515 101.785 63.5075 101.495C63.9634 101.201 64.511 101.054 65.1502 101.054C65.7979 101.054 66.337 101.201 66.7674 101.495C67.2021 101.785 67.5408 102.192 67.7837 102.716H67.886C68.1374 102.209 68.5146 101.806 69.0174 101.508C69.5202 101.205 70.1232 101.054 70.8264 101.054C71.7042 101.054 72.4222 101.329 72.9805 101.879C73.5387 102.424 73.8178 103.274 73.8178 104.429V111H72.3093V104.429C72.3093 103.705 72.1112 103.187 71.7148 102.876C71.3185 102.565 70.8519 102.409 70.315 102.409C69.6246 102.409 69.0898 102.618 68.7106 103.036C68.3313 103.449 68.1417 103.973 68.1417 104.608V111H66.6076V104.276C66.6076 103.717 66.4265 103.268 66.0643 102.927C65.7021 102.582 65.2354 102.409 64.6644 102.409C64.2724 102.409 63.9059 102.513 63.565 102.722C63.2283 102.931 62.9556 103.221 62.7468 103.592C62.5423 103.958 62.44 104.382 62.44 104.864V111H60.9315ZM76.576 111V101.182H78.0845V111H76.576ZM77.343 99.5455C77.049 99.5455 76.7955 99.4453 76.5824 99.245C76.3736 99.0447 76.2692 98.804 76.2692 98.5227C76.2692 98.2415 76.3736 98.0007 76.5824 97.8004C76.7955 97.6001 77.049 97.5 77.343 97.5C77.6371 97.5 77.8885 97.6001 78.0973 97.8004C78.3104 98.0007 78.4169 98.2415 78.4169 98.5227C78.4169 98.804 78.3104 99.0447 78.0973 99.245C77.8885 99.4453 77.6371 99.5455 77.343 99.5455ZM87.035 106.986V101.182H88.5435V111H87.035V109.338H86.9327C86.7026 109.837 86.3446 110.261 85.8588 110.61C85.373 110.955 84.7594 111.128 84.0179 111.128C83.4043 111.128 82.8588 110.994 82.3816 110.725C81.9043 110.452 81.5293 110.043 81.2566 109.498C80.9838 108.948 80.8475 108.256 80.8475 107.42V101.182H82.356V107.318C82.356 108.034 82.5563 108.605 82.9569 109.031C83.3617 109.457 83.8773 109.67 84.5037 109.67C84.8787 109.67 85.2601 109.575 85.6479 109.383C86.04 109.191 86.3681 108.897 86.6323 108.501C86.9007 108.104 87.035 107.599 87.035 106.986ZM91.3065 111V101.182H92.7638V102.716H92.8917C93.0962 102.192 93.4265 101.785 93.8825 101.495C94.3384 101.201 94.886 101.054 95.5252 101.054C96.1729 101.054 96.712 101.201 97.1424 101.495C97.5771 101.785 97.9158 102.192 98.1587 102.716H98.261C98.5124 102.209 98.8896 101.806 99.3924 101.508C99.8952 101.205 100.498 101.054 101.201 101.054C102.079 101.054 102.797 101.329 103.355 101.879C103.914 102.424 104.193 103.274 104.193 104.429V111H102.684V104.429C102.684 103.705 102.486 103.187 102.09 102.876C101.694 102.565 101.227 102.409 100.69 102.409C99.9996 102.409 99.4648 102.618 99.0856 103.036C98.7063 103.449 98.5167 103.973 98.5167 104.608V111H96.9826V104.276C96.9826 103.717 96.8015 103.268 96.4393 102.927C96.0771 102.582 95.6104 102.409 95.0394 102.409C94.6474 102.409 94.2809 102.513 93.94 102.722C93.6033 102.931 93.3306 103.221 93.1218 103.592C92.9173 103.958 92.815 104.382 92.815 104.864V111H91.3065ZM112.755 111H111.093L115.9 97.9091H117.536L122.343 111H120.681L116.769 99.9801H116.667L112.755 111ZM113.369 105.886H120.067V107.293H113.369V105.886ZM124.283 111V101.182H125.792V111H124.283ZM125.05 99.5455C124.756 99.5455 124.502 99.4453 124.289 99.245C124.081 99.0447 123.976 98.804 123.976 98.5227C123.976 98.2415 124.081 98.0007 124.289 97.8004C124.502 97.6001 124.756 97.5 125.05 97.5C125.344 97.5 125.596 97.6001 125.804 97.8004C126.017 98.0007 126.124 98.2415 126.124 98.5227C126.124 98.804 126.017 99.0447 125.804 99.245C125.596 99.4453 125.344 99.5455 125.05 99.5455ZM128.555 111V101.182H130.012V102.665H130.114C130.293 102.179 130.617 101.785 131.086 101.482C131.555 101.18 132.083 101.028 132.671 101.028C132.782 101.028 132.92 101.031 133.086 101.035C133.253 101.039 133.378 101.045 133.464 101.054V102.588C133.412 102.575 133.295 102.556 133.112 102.531C132.933 102.501 132.743 102.486 132.543 102.486C132.066 102.486 131.64 102.586 131.265 102.786C130.894 102.982 130.6 103.255 130.383 103.604C130.17 103.95 130.063 104.344 130.063 104.787V111H128.555ZM136.76 97.9091V111H135.252V97.9091H136.76ZM139.523 111V101.182H141.032V111H139.523ZM140.29 99.5455C139.996 99.5455 139.743 99.4453 139.53 99.245C139.321 99.0447 139.216 98.804 139.216 98.5227C139.216 98.2415 139.321 98.0007 139.53 97.8004C139.743 97.6001 139.996 97.5 140.29 97.5C140.584 97.5 140.836 97.6001 141.045 97.8004C141.258 98.0007 141.364 98.2415 141.364 98.5227C141.364 98.804 141.258 99.0447 141.045 99.245C140.836 99.4453 140.584 99.5455 140.29 99.5455ZM145.303 105.094V111H143.795V101.182H145.252V102.716H145.38C145.61 102.217 145.96 101.817 146.428 101.514C146.897 101.207 147.502 101.054 148.244 101.054C148.908 101.054 149.49 101.19 149.989 101.463C150.487 101.732 150.875 102.141 151.152 102.69C151.429 103.236 151.567 103.926 151.567 104.761V111H150.059V104.864C150.059 104.092 149.859 103.491 149.458 103.061C149.058 102.626 148.508 102.409 147.809 102.409C147.327 102.409 146.897 102.513 146.518 102.722C146.143 102.931 145.847 103.236 145.629 103.636C145.412 104.037 145.303 104.523 145.303 105.094ZM158.441 111.205C157.494 111.205 156.678 110.996 155.992 110.578C155.311 110.156 154.784 109.568 154.414 108.814C154.047 108.055 153.864 107.173 153.864 106.168C153.864 105.162 154.047 104.276 154.414 103.509C154.784 102.737 155.3 102.136 155.96 101.706C156.625 101.271 157.401 101.054 158.287 101.054C158.798 101.054 159.303 101.139 159.802 101.31C160.301 101.48 160.754 101.757 161.164 102.141C161.573 102.52 161.899 103.023 162.142 103.649C162.384 104.276 162.506 105.047 162.506 105.963V106.602H154.938V105.298H160.972C160.972 104.744 160.861 104.25 160.639 103.815C160.422 103.381 160.111 103.038 159.706 102.786C159.306 102.535 158.833 102.409 158.287 102.409C157.686 102.409 157.166 102.558 156.727 102.857C156.293 103.151 155.958 103.534 155.724 104.007C155.49 104.48 155.372 104.987 155.372 105.528V106.398C155.372 107.139 155.5 107.768 155.756 108.283C156.016 108.795 156.376 109.185 156.836 109.453C157.296 109.717 157.831 109.849 158.441 109.849C158.837 109.849 159.195 109.794 159.514 109.683C159.838 109.568 160.117 109.398 160.352 109.172C160.586 108.942 160.767 108.656 160.895 108.315L162.352 108.724C162.199 109.219 161.941 109.653 161.579 110.028C161.217 110.399 160.769 110.689 160.237 110.898C159.704 111.102 159.105 111.205 158.441 111.205ZM171.755 103.381L170.4 103.764C170.315 103.538 170.189 103.319 170.023 103.106C169.861 102.888 169.639 102.71 169.358 102.569C169.077 102.428 168.717 102.358 168.278 102.358C167.677 102.358 167.176 102.496 166.776 102.773C166.379 103.046 166.181 103.393 166.181 103.815C166.181 104.19 166.318 104.487 166.59 104.704C166.863 104.921 167.289 105.102 167.869 105.247L169.326 105.605C170.204 105.818 170.858 106.144 171.289 106.583C171.719 107.018 171.934 107.578 171.934 108.264C171.934 108.827 171.772 109.33 171.448 109.773C171.129 110.216 170.681 110.565 170.106 110.821C169.531 111.077 168.862 111.205 168.099 111.205C167.097 111.205 166.269 110.987 165.612 110.553C164.956 110.118 164.541 109.483 164.366 108.648L165.798 108.29C165.934 108.818 166.192 109.214 166.571 109.479C166.955 109.743 167.455 109.875 168.073 109.875C168.776 109.875 169.335 109.726 169.748 109.428C170.166 109.125 170.374 108.763 170.374 108.341C170.374 108 170.255 107.714 170.017 107.484C169.778 107.25 169.411 107.075 168.917 106.96L167.281 106.577C166.382 106.364 165.721 106.033 165.299 105.586C164.882 105.134 164.673 104.57 164.673 103.892C164.673 103.338 164.828 102.848 165.139 102.422C165.455 101.996 165.883 101.661 166.424 101.418C166.97 101.175 167.588 101.054 168.278 101.054C169.249 101.054 170.012 101.267 170.566 101.693C171.124 102.119 171.521 102.682 171.755 103.381Z" fill="#191825"/>
</svg>
