<svg width="205" height="151" viewBox="0 0 205 151" fill="none" xmlns="http://www.w3.org/2000/svg">
<rect width="204.5" height="151" rx="32" fill="white"/>
<rect x="0.5" y="0.5" width="203.5" height="150" rx="31.5" stroke="#191825" stroke-opacity="0.1"/>
<path d="M78.805 52.07C78.7 51.685 78.63 51.23 78.63 50.81C78.63 48.675 79.82 47.03 82.235 47.03C84.51 47.03 85.665 48.5 85.665 50.145C85.665 51.72 84.895 52.91 82.97 54.065L79.225 56.305C75.165 58.755 73.905 62.01 73.87 66H90.67V61.835H79.785C80.135 60.96 80.87 60.33 81.745 59.77L86.12 57.11C88.92 55.395 90.53 53.015 90.53 50.075C90.53 46.12 87.415 42.76 82.34 42.76C77.055 42.76 74.045 46.365 74.045 50.355C74.045 50.915 74.15 51.615 74.22 51.93L78.805 52.07ZM110.934 48.78H104.844L98.8939 55.185V40.66H94.2389V66H98.8939V61.45L100.819 59.42L105.369 66H111.074L104.039 56.025L110.934 48.78ZM112.473 53.785V57.6H119.088V64.46H123.008V57.6H129.658V53.785H123.008V46.96H119.088V53.785H112.473Z" fill="#FF5722"/>
<path d="M31.8352 111V97.9091H33.4205V103.739H40.4006V97.9091H41.9858V111H40.4006V105.145H33.4205V111H31.8352ZM47.8441 111.23C47.2219 111.23 46.6573 111.113 46.1502 110.879C45.6431 110.64 45.2404 110.297 44.9421 109.849C44.6438 109.398 44.4947 108.852 44.4947 108.213C44.4947 107.651 44.6055 107.195 44.8271 106.845C45.0487 106.491 45.3448 106.214 45.7156 106.014C46.0863 105.814 46.4954 105.665 46.9428 105.567C47.3945 105.464 47.8484 105.384 48.3043 105.324C48.9009 105.247 49.3846 105.19 49.7553 105.151C50.1303 105.109 50.4031 105.038 50.5735 104.94C50.7482 104.842 50.8356 104.672 50.8356 104.429V104.378C50.8356 103.747 50.663 103.257 50.3178 102.908C49.9769 102.558 49.4592 102.384 48.7646 102.384C48.0444 102.384 47.4798 102.541 47.0707 102.857C46.6616 103.172 46.3739 103.509 46.2077 103.866L44.7759 103.355C45.0316 102.759 45.3725 102.294 45.7987 101.962C46.229 101.625 46.6978 101.391 47.2049 101.259C47.7163 101.122 48.2191 101.054 48.7134 101.054C49.0288 101.054 49.391 101.092 49.8001 101.169C50.2134 101.241 50.6119 101.393 50.9954 101.623C51.3832 101.853 51.7049 102.2 51.9606 102.665C52.2163 103.129 52.3441 103.751 52.3441 104.531V111H50.8356V109.67H50.7589C50.6566 109.884 50.4862 110.112 50.2475 110.354C50.0089 110.597 49.6914 110.804 49.2951 110.974C48.8988 111.145 48.4151 111.23 47.8441 111.23ZM48.0742 109.875C48.6708 109.875 49.1737 109.758 49.5827 109.523C49.9961 109.289 50.3072 108.987 50.516 108.616C50.729 108.245 50.8356 107.855 50.8356 107.446V106.065C50.7717 106.142 50.631 106.212 50.4137 106.276C50.2006 106.336 49.9535 106.389 49.6722 106.436C49.3952 106.479 49.1246 106.517 48.8604 106.551C48.6005 106.581 48.3896 106.607 48.2276 106.628C47.8356 106.679 47.4691 106.762 47.1282 106.877C46.7915 106.988 46.5188 107.156 46.31 107.382C46.1055 107.604 46.0032 107.906 46.0032 108.29C46.0032 108.814 46.1971 109.21 46.5849 109.479C46.9769 109.743 47.4734 109.875 48.0742 109.875ZM55.0975 114.682V101.182H56.5549V102.741H56.7338C56.8446 102.571 56.998 102.354 57.1941 102.089C57.3944 101.821 57.6799 101.582 58.0506 101.374C58.4256 101.161 58.9327 101.054 59.5719 101.054C60.3986 101.054 61.1273 101.261 61.758 101.674C62.3887 102.087 62.8809 102.673 63.2346 103.432C63.5882 104.19 63.7651 105.085 63.7651 106.116C63.7651 107.156 63.5882 108.058 63.2346 108.82C62.8809 109.579 62.3908 110.167 61.7644 110.585C61.138 110.998 60.4157 111.205 59.5975 111.205C58.9668 111.205 58.4618 111.1 58.0826 110.891C57.7033 110.678 57.4114 110.437 57.2069 110.169C57.0023 109.896 56.8446 109.67 56.7338 109.491H56.606V114.682H55.0975ZM56.5804 106.091C56.5804 106.832 56.6891 107.487 56.9064 108.053C57.1238 108.616 57.4412 109.057 57.8588 109.376C58.2765 109.692 58.7878 109.849 59.3929 109.849C60.0236 109.849 60.5499 109.683 60.9718 109.351C61.3979 109.014 61.7175 108.562 61.9306 107.996C62.1479 107.425 62.2566 106.79 62.2566 106.091C62.2566 105.401 62.15 104.778 61.937 104.224C61.7282 103.666 61.4107 103.225 60.9846 102.901C60.5627 102.573 60.0321 102.409 59.3929 102.409C58.7793 102.409 58.2637 102.565 57.8461 102.876C57.4284 103.183 57.1131 103.613 56.9 104.167C56.687 104.717 56.5804 105.358 56.5804 106.091ZM66.0662 114.682V101.182H67.5236V102.741H67.7026C67.8134 102.571 67.9668 102.354 68.1628 102.089C68.3631 101.821 68.6486 101.582 69.0194 101.374C69.3944 101.161 69.9015 101.054 70.5407 101.054C71.3674 101.054 72.0961 101.261 72.7267 101.674C73.3574 102.087 73.8496 102.673 74.2033 103.432C74.557 104.19 74.7338 105.085 74.7338 106.116C74.7338 107.156 74.557 108.058 74.2033 108.82C73.8496 109.579 73.3596 110.167 72.7331 110.585C72.1067 110.998 71.3844 111.205 70.5662 111.205C69.9355 111.205 69.4306 111.1 69.0513 110.891C68.6721 110.678 68.3801 110.437 68.1756 110.169C67.9711 109.896 67.8134 109.67 67.7026 109.491H67.5748V114.682H66.0662ZM67.5492 106.091C67.5492 106.832 67.6578 107.487 67.8752 108.053C68.0925 108.616 68.41 109.057 68.8276 109.376C69.2452 109.692 69.7566 109.849 70.3617 109.849C70.9924 109.849 71.5186 109.683 71.9405 109.351C72.3667 109.014 72.6863 108.562 72.8993 107.996C73.1167 107.425 73.2253 106.79 73.2253 106.091C73.2253 105.401 73.1188 104.778 72.9057 104.224C72.6969 103.666 72.3794 103.225 71.9533 102.901C71.5314 102.573 71.0009 102.409 70.3617 102.409C69.748 102.409 69.2324 102.565 68.8148 102.876C68.3972 103.183 68.0819 103.613 67.8688 104.167C67.6557 104.717 67.5492 105.358 67.5492 106.091ZM77.655 114.682C77.3993 114.682 77.1713 114.661 76.9711 114.618C76.7708 114.58 76.6323 114.541 76.5556 114.503L76.9391 113.173C77.3056 113.267 77.6294 113.301 77.9107 113.276C78.1919 113.25 78.4412 113.124 78.6586 112.898C78.8801 112.677 79.0826 112.317 79.2658 111.818L79.5471 111.051L75.9164 101.182H77.5527L80.263 109.006H80.3652L83.0755 101.182H84.7118L80.5442 112.432C80.3567 112.939 80.1245 113.359 79.8475 113.691C79.5705 114.028 79.2488 114.277 78.8823 114.439C78.5201 114.601 78.111 114.682 77.655 114.682ZM102.504 102H100.919C100.825 101.544 100.661 101.143 100.427 100.798C100.197 100.453 99.9153 100.163 99.5829 99.929C99.2548 99.6903 98.8904 99.5114 98.4899 99.392C98.0893 99.2727 97.6717 99.2131 97.237 99.2131C96.4444 99.2131 95.7264 99.4134 95.0829 99.8139C94.4437 100.214 93.9345 100.805 93.5552 101.585C93.1802 102.364 92.9927 103.321 92.9927 104.455C92.9927 105.588 93.1802 106.545 93.5552 107.325C93.9345 108.104 94.4437 108.695 95.0829 109.095C95.7264 109.496 96.4444 109.696 97.237 109.696C97.6717 109.696 98.0893 109.636 98.4899 109.517C98.8904 109.398 99.2548 109.221 99.5829 108.987C99.9153 108.748 100.197 108.456 100.427 108.111C100.661 107.761 100.825 107.361 100.919 106.909H102.504C102.385 107.578 102.167 108.177 101.852 108.705C101.537 109.234 101.145 109.683 100.676 110.054C100.207 110.42 99.6809 110.7 99.0971 110.891C98.5176 111.083 97.8975 111.179 97.237 111.179C96.1206 111.179 95.1277 110.906 94.2583 110.361C93.389 109.815 92.7051 109.04 92.2065 108.034C91.7079 107.028 91.4586 105.835 91.4586 104.455C91.4586 103.074 91.7079 101.881 92.2065 100.875C92.7051 99.8693 93.389 99.0938 94.2583 98.5483C95.1277 98.0028 96.1206 97.7301 97.237 97.7301C97.8975 97.7301 98.5176 97.826 99.0971 98.0178C99.6809 98.2095 100.207 98.4908 100.676 98.8615C101.145 99.228 101.537 99.6754 101.852 100.204C102.167 100.728 102.385 101.327 102.504 102ZM111.049 106.986V101.182H112.557V111H111.049V109.338H110.946C110.716 109.837 110.358 110.261 109.873 110.61C109.387 110.955 108.773 111.128 108.032 111.128C107.418 111.128 106.873 110.994 106.395 110.725C105.918 110.452 105.543 110.043 105.27 109.498C104.998 108.948 104.861 108.256 104.861 107.42V101.182H106.37V107.318C106.37 108.034 106.57 108.605 106.971 109.031C107.375 109.457 107.891 109.67 108.517 109.67C108.892 109.67 109.274 109.575 109.662 109.383C110.054 109.191 110.382 108.897 110.646 108.501C110.914 108.104 111.049 107.599 111.049 106.986ZM122.275 103.381L120.92 103.764C120.834 103.538 120.709 103.319 120.542 103.106C120.381 102.888 120.159 102.71 119.878 102.569C119.596 102.428 119.236 102.358 118.797 102.358C118.197 102.358 117.696 102.496 117.295 102.773C116.899 103.046 116.701 103.393 116.701 103.815C116.701 104.19 116.837 104.487 117.11 104.704C117.383 104.921 117.809 105.102 118.388 105.247L119.846 105.605C120.724 105.818 121.378 106.144 121.808 106.583C122.238 107.018 122.454 107.578 122.454 108.264C122.454 108.827 122.292 109.33 121.968 109.773C121.648 110.216 121.201 110.565 120.626 110.821C120.05 111.077 119.381 111.205 118.618 111.205C117.617 111.205 116.788 110.987 116.132 110.553C115.476 110.118 115.06 109.483 114.885 108.648L116.317 108.29C116.454 108.818 116.711 109.214 117.091 109.479C117.474 109.743 117.975 109.875 118.593 109.875C119.296 109.875 119.854 109.726 120.268 109.428C120.685 109.125 120.894 108.763 120.894 108.341C120.894 108 120.775 107.714 120.536 107.484C120.297 107.25 119.931 107.075 119.437 106.96L117.8 106.577C116.901 106.364 116.241 106.033 115.819 105.586C115.401 105.134 115.192 104.57 115.192 103.892C115.192 103.338 115.348 102.848 115.659 102.422C115.974 101.996 116.403 101.661 116.944 101.418C117.489 101.175 118.107 101.054 118.797 101.054C119.769 101.054 120.532 101.267 121.086 101.693C121.644 102.119 122.04 102.682 122.275 103.381ZM128.994 101.182V102.46H123.906V101.182H128.994ZM125.389 98.8295H126.898V108.188C126.898 108.614 126.96 108.933 127.083 109.146C127.211 109.355 127.373 109.496 127.569 109.568C127.769 109.636 127.98 109.67 128.202 109.67C128.368 109.67 128.504 109.662 128.611 109.645C128.717 109.624 128.803 109.607 128.866 109.594L129.173 110.949C129.071 110.987 128.928 111.026 128.745 111.064C128.562 111.107 128.33 111.128 128.048 111.128C127.622 111.128 127.205 111.036 126.795 110.853C126.391 110.67 126.054 110.391 125.786 110.016C125.521 109.641 125.389 109.168 125.389 108.597V98.8295ZM135.147 111.205C134.26 111.205 133.483 110.994 132.814 110.572C132.149 110.15 131.629 109.56 131.254 108.801C130.883 108.043 130.698 107.156 130.698 106.142C130.698 105.119 130.883 104.227 131.254 103.464C131.629 102.701 132.149 102.109 132.814 101.687C133.483 101.265 134.26 101.054 135.147 101.054C136.033 101.054 136.809 101.265 137.473 101.687C138.142 102.109 138.662 102.701 139.033 103.464C139.408 104.227 139.596 105.119 139.596 106.142C139.596 107.156 139.408 108.043 139.033 108.801C138.662 109.56 138.142 110.15 137.473 110.572C136.809 110.994 136.033 111.205 135.147 111.205ZM135.147 109.849C135.82 109.849 136.374 109.677 136.809 109.332C137.243 108.987 137.565 108.533 137.774 107.97C137.983 107.408 138.087 106.798 138.087 106.142C138.087 105.486 137.983 104.874 137.774 104.308C137.565 103.741 137.243 103.283 136.809 102.933C136.374 102.584 135.82 102.409 135.147 102.409C134.473 102.409 133.919 102.584 133.485 102.933C133.05 103.283 132.728 103.741 132.52 104.308C132.311 104.874 132.206 105.486 132.206 106.142C132.206 106.798 132.311 107.408 132.52 107.97C132.728 108.533 133.05 108.987 133.485 109.332C133.919 109.677 134.473 109.849 135.147 109.849ZM141.898 111V101.182H143.356V102.716H143.483C143.688 102.192 144.018 101.785 144.474 101.495C144.93 101.201 145.478 101.054 146.117 101.054C146.765 101.054 147.304 101.201 147.734 101.495C148.169 101.785 148.508 102.192 148.751 102.716H148.853C149.104 102.209 149.481 101.806 149.984 101.508C150.487 101.205 151.09 101.054 151.793 101.054C152.671 101.054 153.389 101.329 153.947 101.879C154.506 102.424 154.785 103.274 154.785 104.429V111H153.276V104.429C153.276 103.705 153.078 103.187 152.682 102.876C152.285 102.565 151.819 102.409 151.282 102.409C150.591 102.409 150.057 102.618 149.677 103.036C149.298 103.449 149.108 103.973 149.108 104.608V111H147.574V104.276C147.574 103.717 147.393 103.268 147.031 102.927C146.669 102.582 146.202 102.409 145.631 102.409C145.239 102.409 144.873 102.513 144.532 102.722C144.195 102.931 143.922 103.221 143.714 103.592C143.509 103.958 143.407 104.382 143.407 104.864V111H141.898ZM161.659 111.205C160.713 111.205 159.897 110.996 159.211 110.578C158.529 110.156 158.003 109.568 157.632 108.814C157.266 108.055 157.083 107.173 157.083 106.168C157.083 105.162 157.266 104.276 157.632 103.509C158.003 102.737 158.519 102.136 159.179 101.706C159.844 101.271 160.619 101.054 161.506 101.054C162.017 101.054 162.522 101.139 163.021 101.31C163.519 101.48 163.973 101.757 164.382 102.141C164.791 102.52 165.117 103.023 165.36 103.649C165.603 104.276 165.725 105.047 165.725 105.963V106.602H158.156V105.298H164.191C164.191 104.744 164.08 104.25 163.858 103.815C163.641 103.381 163.33 103.038 162.925 102.786C162.524 102.535 162.051 102.409 161.506 102.409C160.905 102.409 160.385 102.558 159.946 102.857C159.512 103.151 159.177 103.534 158.943 104.007C158.708 104.48 158.591 104.987 158.591 105.528V106.398C158.591 107.139 158.719 107.768 158.975 108.283C159.235 108.795 159.595 109.185 160.055 109.453C160.515 109.717 161.05 109.849 161.659 109.849C162.056 109.849 162.414 109.794 162.733 109.683C163.057 109.568 163.336 109.398 163.57 109.172C163.805 108.942 163.986 108.656 164.114 108.315L165.571 108.724C165.418 109.219 165.16 109.653 164.798 110.028C164.436 110.399 163.988 110.689 163.455 110.898C162.923 111.102 162.324 111.205 161.659 111.205ZM168.019 111V101.182H169.477V102.665H169.579C169.758 102.179 170.082 101.785 170.551 101.482C171.019 101.18 171.548 101.028 172.136 101.028C172.247 101.028 172.385 101.031 172.551 101.035C172.718 101.039 172.843 101.045 172.928 101.054V102.588C172.877 102.575 172.76 102.556 172.577 102.531C172.398 102.501 172.208 102.486 172.008 102.486C171.531 102.486 171.105 102.586 170.73 102.786C170.359 102.982 170.065 103.255 169.847 103.604C169.634 103.95 169.528 104.344 169.528 104.787V111H168.019Z" fill="#191825"/>
</svg>
