<svg width="66" height="28" viewBox="0 0 66 28" fill="none" xmlns="http://www.w3.org/2000/svg">
<path d="M0.736 18.803H7.797V22H10.925V18.803H13.386V16.089H10.925V7.073H7.015L0.736 15.491V18.803ZM7.797 16.089H3.542L7.797 10.385V16.089ZM15.1956 20.068C15.1956 21.218 16.1386 22.161 17.2886 22.161C18.4616 22.161 19.4046 21.218 19.4046 20.068C19.4046 18.918 18.4616 17.975 17.2886 17.975C16.1386 17.975 15.1956 18.918 15.1956 20.068ZM27.3084 13.191C25.9284 13.168 25.1234 12.294 25.1234 11.236C25.1234 10.247 25.9284 9.35 27.3084 9.35C28.7114 9.35 29.5164 10.247 29.5164 11.236C29.5164 12.294 28.7114 13.168 27.3084 13.191ZM27.3084 19.723C25.6754 19.723 24.8014 18.711 24.8014 17.653C24.8014 16.572 25.6294 15.537 27.3084 15.537C28.9874 15.537 29.8384 16.572 29.8384 17.653C29.8384 18.711 28.9644 19.723 27.3084 19.723ZM27.3084 22.345C30.7124 22.345 32.9434 20.551 32.9434 17.975C32.9434 16.365 31.8854 14.916 30.3214 14.341C31.8164 13.789 32.6444 12.317 32.6444 11.006C32.6444 8.499 30.4134 6.728 27.3084 6.728C24.2034 6.728 21.9724 8.499 21.9724 11.006C21.9724 12.34 22.8234 13.789 24.3184 14.341C22.7314 14.939 21.6734 16.365 21.6734 17.975C21.6734 20.551 23.9044 22.345 27.3084 22.345Z" fill="#FF5722"/>
<path d="M59.9184 16.32C59.6594 16.571 59.5404 16.934 59.5994 17.29L60.4884 22.21C60.5634 22.627 60.3874 23.049 60.0384 23.29C59.6964 23.54 59.2414 23.57 58.8684 23.37L54.4394 21.06C54.2854 20.978 54.1144 20.934 53.9394 20.929H53.6684C53.5744 20.943 53.4824 20.973 53.3984 21.019L48.9684 23.34C48.7494 23.45 48.5014 23.489 48.2584 23.45C47.6664 23.338 47.2714 22.774 47.3684 22.179L48.2584 17.259C48.3174 16.9 48.1984 16.535 47.9394 16.28L44.3284 12.78C44.0264 12.487 43.9214 12.047 44.0594 11.65C44.1934 11.254 44.5354 10.965 44.9484 10.9L49.9184 10.179C50.2964 10.14 50.6284 9.91 50.7984 9.57L52.9884 5.08C53.0404 4.98 53.1074 4.888 53.1884 4.81L53.2784 4.74C53.3254 4.688 53.3794 4.645 53.4394 4.61L53.5484 4.57L53.7184 4.5H54.1394C54.5154 4.539 54.8464 4.764 55.0194 5.1L57.2384 9.57C57.3984 9.897 57.7094 10.124 58.0684 10.179L63.0384 10.9C63.4584 10.96 63.8094 11.25 63.9484 11.65C64.0794 12.051 63.9664 12.491 63.6584 12.78L59.9184 16.32Z" fill="#FF5722"/>
</svg>
