<svg width="66" height="28" viewBox="0 0 66 28" fill="none" xmlns="http://www.w3.org/2000/svg">
<path d="M0.667 17.814C0.851 20.16 3.105 22.368 6.348 22.368C9.936 22.368 12.075 19.953 12.075 17.17C12.075 13.973 9.959 12.179 6.969 12.179C5.98 12.179 4.922 12.501 4.278 13.099L5.014 9.81H11.27V7.073H2.852L1.081 14.732C1.403 14.824 3.68 15.606 3.979 15.721C4.462 15.169 5.267 14.709 6.279 14.709C7.659 14.709 8.924 15.514 8.924 17.216C8.924 18.711 7.774 19.654 6.348 19.654C4.761 19.654 3.703 18.527 3.634 17.147L0.667 17.814ZM13.9827 20.068C13.9827 21.218 14.9257 22.161 16.0757 22.161C17.2487 22.161 18.1917 21.218 18.1917 20.068C18.1917 18.918 17.2487 17.975 16.0757 17.975C14.9257 17.975 13.9827 18.918 13.9827 20.068ZM23.3211 14.548C23.3211 12.984 23.5511 11.65 24.1261 10.753C24.5861 10.017 25.2991 9.534 26.3801 9.534C27.4841 9.534 28.1511 10.017 28.6111 10.753C29.2091 11.65 29.4391 12.984 29.4391 14.548C29.4391 16.112 29.2091 17.446 28.6111 18.343C28.1511 19.079 27.4841 19.562 26.3801 19.562C25.2991 19.562 24.5861 19.079 24.1261 18.343C23.5511 17.446 23.3211 16.112 23.3211 14.548ZM20.1471 14.548C20.1471 16.457 20.4461 18.32 21.4581 19.861C22.4471 21.333 24.0571 22.368 26.3801 22.368C28.7031 22.368 30.3131 21.333 31.2791 19.861C32.2911 18.32 32.6131 16.457 32.6131 14.548C32.6131 12.639 32.2911 10.776 31.2791 9.235C30.3131 7.763 28.7031 6.728 26.3801 6.728C24.0571 6.728 22.4471 7.763 21.4581 9.235C20.4461 10.776 20.1471 12.639 20.1471 14.548Z" fill="#FF5722"/>
<path d="M59.9184 16.32C59.6594 16.571 59.5404 16.934 59.5994 17.29L60.4884 22.21C60.5634 22.627 60.3874 23.049 60.0384 23.29C59.6964 23.54 59.2414 23.57 58.8684 23.37L54.4394 21.06C54.2854 20.978 54.1144 20.934 53.9394 20.929H53.6684C53.5744 20.943 53.4824 20.973 53.3984 21.019L48.9684 23.34C48.7494 23.45 48.5014 23.489 48.2584 23.45C47.6664 23.338 47.2714 22.774 47.3684 22.179L48.2584 17.259C48.3174 16.9 48.1984 16.535 47.9394 16.28L44.3284 12.78C44.0264 12.487 43.9214 12.047 44.0594 11.65C44.1934 11.254 44.5354 10.965 44.9484 10.9L49.9184 10.179C50.2964 10.14 50.6284 9.91 50.7984 9.57L52.9884 5.08C53.0404 4.98 53.1074 4.888 53.1884 4.81L53.2784 4.74C53.3254 4.688 53.3794 4.645 53.4394 4.61L53.5484 4.57L53.7184 4.5H54.1394C54.5154 4.539 54.8464 4.764 55.0194 5.1L57.2384 9.57C57.3984 9.897 57.7094 10.124 58.0684 10.179L63.0384 10.9C63.4584 10.96 63.8094 11.25 63.9484 11.65C64.0794 12.051 63.9664 12.491 63.6584 12.78L59.9184 16.32Z" fill="#FF5722"/>
</svg>
