<svg width="66" height="28" viewBox="0 0 66 28" fill="none" xmlns="http://www.w3.org/2000/svg">
<path d="M0.736 18.803H7.797V22H10.925V18.803H13.386V16.089H10.925V7.073H7.015L0.736 15.491V18.803ZM7.797 16.089H3.542L7.797 10.385V16.089ZM15.1956 20.068C15.1956 21.218 16.1386 22.161 17.2886 22.161C18.4616 22.161 19.4046 21.218 19.4046 20.068C19.4046 18.918 18.4616 17.975 17.2886 17.975C16.1386 17.975 15.1956 18.918 15.1956 20.068ZM21.5332 17.814C21.7172 20.16 23.9712 22.368 27.2142 22.368C30.8022 22.368 32.9412 19.953 32.9412 17.17C32.9412 13.973 30.8252 12.179 27.8352 12.179C26.8462 12.179 25.7882 12.501 25.1442 13.099L25.8802 9.81H32.1362V7.073H23.7182L21.9472 14.732C22.2692 14.824 24.5462 15.606 24.8452 15.721C25.3282 15.169 26.1332 14.709 27.1452 14.709C28.5252 14.709 29.7902 15.514 29.7902 17.216C29.7902 18.711 28.6402 19.654 27.2142 19.654C25.6272 19.654 24.5692 18.527 24.5002 17.147L21.5332 17.814Z" fill="#FF5722"/>
<path d="M59.9184 16.32C59.6594 16.571 59.5404 16.934 59.5994 17.29L60.4884 22.21C60.5634 22.627 60.3874 23.049 60.0384 23.29C59.6964 23.54 59.2414 23.57 58.8684 23.37L54.4394 21.06C54.2854 20.978 54.1144 20.934 53.9394 20.929H53.6684C53.5744 20.943 53.4824 20.973 53.3984 21.019L48.9684 23.34C48.7494 23.45 48.5014 23.489 48.2584 23.45C47.6664 23.338 47.2714 22.774 47.3684 22.179L48.2584 17.259C48.3174 16.9 48.1984 16.535 47.9394 16.28L44.3284 12.78C44.0264 12.487 43.9214 12.047 44.0594 11.65C44.1934 11.254 44.5354 10.965 44.9484 10.9L49.9184 10.179C50.2964 10.14 50.6284 9.91 50.7984 9.57L52.9884 5.08C53.0404 4.98 53.1074 4.888 53.1884 4.81L53.2784 4.74C53.3254 4.688 53.3794 4.645 53.4394 4.61L53.5484 4.57L53.7184 4.5H54.1394C54.5154 4.539 54.8464 4.764 55.0194 5.1L57.2384 9.57C57.3984 9.897 57.7094 10.124 58.0684 10.179L63.0384 10.9C63.4584 10.96 63.8094 11.25 63.9484 11.65C64.0794 12.051 63.9664 12.491 63.6584 12.78L59.9184 16.32Z" fill="#FF5722"/>
</svg>
